<svg xmlns="http://www.w3.org/2000/svg" xmlns:xlink="http://www.w3.org/1999/xlink" width="40" zoomAndPan="magnify" viewBox="0 0 30 30.000001" height="40" preserveAspectRatio="xMidYMid meet" version="1.0"><defs><clipPath id="d1947065c3"><path d="M 0.484375 3.644531 L 29.515625 3.644531 L 29.515625 25.417969 L 0.484375 25.417969 Z M 0.484375 3.644531 " clip-rule="nonzero"/></clipPath></defs><g clip-path="url(#d1947065c3)"><path fill="#000000" d="M 27.238281 25.417969 L 2.734375 25.417969 C 2.546875 25.390625 2.414062 25.371094 2.328125 25.351562 C 1.542969 25.1875 0.890625 24.570312 0.628906 23.835938 C 0.550781 23.617188 0.523438 23.386719 0.484375 23.152344 L 0.484375 5.871094 C 0.523438 5.761719 0.523438 5.636719 0.542969 5.539062 C 0.574219 5.410156 0.605469 5.265625 0.660156 5.148438 C 0.988281 4.371094 1.566406 3.894531 2.390625 3.710938 C 2.46875 3.691406 2.542969 3.683594 2.621094 3.679688 C 2.722656 3.675781 2.820312 3.652344 2.925781 3.652344 C 10.910156 3.648438 18.976562 3.648438 27.128906 3.652344 C 27.191406 3.652344 27.253906 3.65625 27.316406 3.664062 C 27.378906 3.675781 27.4375 3.683594 27.5 3.691406 C 27.714844 3.71875 27.902344 3.769531 28.066406 3.84375 C 28.847656 4.191406 29.421875 4.925781 29.480469 5.800781 C 29.488281 5.941406 29.503906 6.082031 29.503906 6.222656 C 29.46875 10.5625 29.488281 14.902344 29.488281 19.550781 C 29.488281 20.546875 29.515625 21.59375 29.5 22.640625 C 29.496094 22.964844 29.488281 23.183594 29.476562 23.296875 C 29.414062 23.984375 29.089844 24.542969 28.507812 24.976562 C 28.230469 25.179688 27.917969 25.3125 27.578125 25.367188 C 27.464844 25.386719 27.351562 25.402344 27.238281 25.417969 Z M 14.5625 16.734375 C 14.929688 16.875 15.363281 16.785156 15.648438 16.515625 C 18.179688 14.160156 20.691406 11.824219 23.191406 9.511719 C 24.636719 8.179688 26.070312 6.851562 27.488281 5.53125 C 27.511719 5.511719 27.511719 5.488281 27.488281 5.46875 C 27.457031 5.433594 27.410156 5.417969 27.347656 5.417969 C 19.066406 5.414062 10.882812 5.410156 2.804688 5.410156 C 2.644531 5.410156 2.554688 5.449219 2.449219 5.550781 C 2.433594 5.566406 2.433594 5.582031 2.449219 5.59375 C 2.535156 5.671875 2.621094 5.75 2.707031 5.828125 C 3.671875 6.710938 4.753906 7.710938 5.953125 8.828125 C 8.523438 11.234375 11.019531 13.554688 13.441406 15.800781 C 13.65625 16 13.875 16.203125 14.101562 16.414062 C 14.285156 16.582031 14.4375 16.6875 14.5625 16.734375 Z M 27.695312 7.835938 C 27.695312 7.828125 27.695312 7.824219 27.6875 7.820312 C 27.683594 7.816406 27.675781 7.816406 27.671875 7.820312 C 27.472656 7.972656 27.3125 8.152344 27.121094 8.332031 C 25.066406 10.242188 22.960938 12.210938 20.800781 14.238281 C 20.777344 14.257812 20.757812 14.273438 20.734375 14.289062 C 20.699219 14.3125 20.699219 14.335938 20.730469 14.363281 C 20.800781 14.421875 20.867188 14.480469 20.921875 14.53125 C 22.089844 15.628906 23.347656 16.816406 24.691406 18.089844 C 24.953125 18.339844 25.183594 18.558594 25.378906 18.753906 C 25.59375 18.964844 25.820312 19.164062 26.035156 19.371094 C 26.199219 19.535156 26.363281 19.691406 26.523438 19.835938 C 26.789062 20.078125 27.035156 20.332031 27.300781 20.574219 C 27.429688 20.691406 27.550781 20.808594 27.671875 20.933594 C 27.675781 20.9375 27.679688 20.941406 27.6875 20.9375 C 27.699219 20.9375 27.703125 20.933594 27.703125 20.921875 C 27.703125 16.566406 27.703125 12.214844 27.703125 7.863281 C 27.703125 7.855469 27.703125 7.851562 27.699219 7.847656 C 27.699219 7.84375 27.695312 7.839844 27.695312 7.835938 Z M 2.320312 20.9375 C 2.5 20.757812 2.695312 20.570312 2.902344 20.371094 C 4.78125 18.578125 6.636719 16.804688 8.46875 15.046875 C 8.679688 14.84375 8.898438 14.636719 9.128906 14.421875 C 9.171875 14.382812 9.171875 14.339844 9.128906 14.300781 C 9.039062 14.21875 8.953125 14.140625 8.875 14.066406 C 6.660156 11.988281 4.578125 10.046875 2.621094 8.230469 C 2.503906 8.121094 2.390625 8.019531 2.285156 7.917969 C 2.28125 7.914062 2.277344 7.914062 2.277344 7.917969 L 2.269531 20.917969 C 2.269531 20.964844 2.285156 20.972656 2.320312 20.9375 Z M 15.085938 18.617188 C 14.203125 18.65625 13.492188 18.335938 12.851562 17.730469 C 12.265625 17.179688 11.539062 16.5 10.679688 15.695312 C 10.644531 15.660156 10.605469 15.628906 10.5625 15.597656 C 10.535156 15.574219 10.507812 15.578125 10.480469 15.601562 C 10.375 15.699219 10.269531 15.808594 10.167969 15.910156 C 7.921875 18.058594 5.699219 20.1875 3.496094 22.304688 C 3.21875 22.574219 2.972656 22.804688 2.753906 23.003906 C 2.632812 23.117188 2.515625 23.230469 2.40625 23.339844 C 2.378906 23.367188 2.378906 23.398438 2.40625 23.429688 C 2.578125 23.613281 2.734375 23.601562 3.015625 23.601562 C 11.0625 23.601562 19.109375 23.601562 27.15625 23.601562 C 27.355469 23.601562 27.464844 23.582031 27.570312 23.421875 C 27.59375 23.382812 27.589844 23.347656 27.558594 23.320312 C 24.964844 20.863281 22.375 18.402344 19.78125 15.941406 C 19.636719 15.800781 19.515625 15.679688 19.414062 15.570312 C 19.382812 15.535156 19.347656 15.53125 19.3125 15.5625 C 18.582031 16.242188 17.859375 16.925781 17.132812 17.609375 C 16.855469 17.871094 16.640625 18.050781 16.488281 18.148438 C 16.039062 18.4375 15.574219 18.59375 15.085938 18.617188 Z M 15.085938 18.617188 " fill-opacity="1" fill-rule="nonzero"/></g></svg>