<svg xmlns="http://www.w3.org/2000/svg" xmlns:xlink="http://www.w3.org/1999/xlink" width="40" zoomAndPan="magnify" viewBox="0 0 30 30.000001" height="40" preserveAspectRatio="xMidYMid meet" version="1.0"><defs><clipPath id="8b9f96180c"><path d="M 8.136719 0 L 21.929688 0 L 21.929688 29 L 8.136719 29 Z M 8.136719 0 " clip-rule="nonzero"/></clipPath></defs><g clip-path="url(#8b9f96180c)"><path fill="#000000" d="M 18.695312 4.8125 L 21.859375 4.8125 L 21.859375 0.0390625 L 17.816406 0.0390625 L 17.816406 0.0585938 C 12.503906 0.253906 11.40625 3.230469 11.316406 6.375 L 11.304688 6.375 L 11.304688 9.6875 L 8.136719 9.6875 L 8.136719 14.46875 L 11.304688 14.46875 L 11.304688 28.992188 L 16.984375 28.992188 L 16.984375 14.46875 L 21.054688 14.46875 L 21.859375 9.6875 L 16.984375 9.6875 L 16.984375 6.722656 C 16.984375 5.671875 17.691406 4.8125 18.695312 4.8125 Z M 18.695312 4.8125 " fill-opacity="1" fill-rule="nonzero"/></g></svg>