<svg xmlns="http://www.w3.org/2000/svg" xmlns:xlink="http://www.w3.org/1999/xlink" width="40" zoomAndPan="magnify" viewBox="0 0 30 30.000001" height="40" preserveAspectRatio="xMidYMid meet" version="1.0"><defs><clipPath id="bc965e7746"><path d="M 0.484375 0 L 29.515625 0 L 29.515625 29.03125 L 0.484375 29.03125 Z M 0.484375 0 " clip-rule="nonzero"/></clipPath></defs><g clip-path="url(#bc965e7746)"><path fill="#000000" d="M 29.515625 7.917969 C 29.515625 3.546875 25.96875 0 21.597656 0 L 8.402344 0 C 4.03125 0 0.484375 3.546875 0.484375 7.917969 L 0.484375 21.113281 C 0.484375 25.484375 4.03125 29.03125 8.402344 29.03125 L 21.597656 29.03125 C 25.96875 29.03125 29.515625 25.484375 29.515625 21.113281 Z M 26.878906 7.917969 L 26.878906 21.113281 C 26.878906 24.027344 24.511719 26.394531 21.597656 26.394531 C 21.597656 26.394531 8.402344 26.394531 8.402344 26.394531 C 5.488281 26.394531 3.121094 24.027344 3.121094 21.113281 L 3.121094 7.917969 C 3.121094 5.003906 5.488281 2.640625 8.402344 2.640625 L 21.597656 2.640625 C 24.511719 2.640625 26.878906 5.003906 26.878906 7.917969 Z M 26.878906 7.917969 " fill-opacity="1" fill-rule="evenodd"/></g><path fill="#000000" d="M 21.582031 13.492188 C 21.160156 10.625 18.890625 8.355469 16.023438 7.933594 C 15.703125 7.882812 15.382812 7.859375 15.058594 7.859375 C 11.4375 7.859375 8.457031 10.839844 8.457031 14.460938 C 8.457031 18.078125 11.4375 21.058594 15.058594 21.058594 C 18.675781 21.058594 21.65625 18.078125 21.65625 14.460938 C 21.65625 14.132812 21.632812 13.8125 21.582031 13.492188 Z M 18.972656 13.878906 C 19 14.070312 19.015625 14.265625 19.015625 14.460938 C 19.015625 16.628906 17.230469 18.417969 15.058594 18.417969 C 12.886719 18.417969 11.097656 16.628906 11.097656 14.460938 C 11.097656 12.289062 12.886719 10.5 15.058594 10.5 C 15.253906 10.5 15.445312 10.515625 15.636719 10.542969 C 17.359375 10.796875 18.71875 12.15625 18.972656 13.878906 Z M 18.972656 13.878906 " fill-opacity="1" fill-rule="evenodd"/><path fill="#000000" d="M 23.632812 7.253906 C 23.632812 7.433594 23.597656 7.605469 23.527344 7.773438 C 23.460938 7.941406 23.363281 8.085938 23.234375 8.214844 C 23.105469 8.339844 22.960938 8.4375 22.792969 8.507812 C 22.628906 8.578125 22.453125 8.609375 22.273438 8.609375 C 22.09375 8.609375 21.921875 8.578125 21.753906 8.507812 C 21.589844 8.4375 21.441406 8.339844 21.316406 8.214844 C 21.1875 8.085938 21.089844 7.941406 21.019531 7.773438 C 20.953125 7.605469 20.917969 7.433594 20.917969 7.253906 C 20.917969 7.074219 20.953125 6.902344 21.019531 6.734375 C 21.089844 6.570312 21.1875 6.421875 21.316406 6.292969 C 21.441406 6.167969 21.589844 6.070312 21.753906 6 C 21.921875 5.929688 22.09375 5.898438 22.273438 5.898438 C 22.453125 5.898438 22.628906 5.929688 22.792969 6 C 22.960938 6.070312 23.105469 6.167969 23.234375 6.292969 C 23.363281 6.421875 23.460938 6.570312 23.527344 6.734375 C 23.597656 6.902344 23.632812 7.074219 23.632812 7.253906 Z M 23.632812 7.253906 " fill-opacity="1" fill-rule="nonzero"/></svg>