<svg xmlns="http://www.w3.org/2000/svg" xmlns:xlink="http://www.w3.org/1999/xlink" width="40" zoomAndPan="magnify" viewBox="0 0 30 30.000001" height="40" preserveAspectRatio="xMidYMid meet" version="1.0"><defs><clipPath id="b98d65974c"><path d="M 0.484375 0 L 29.515625 0 L 29.515625 29.03125 L 0.484375 29.03125 Z M 0.484375 0 " clip-rule="nonzero"/></clipPath></defs><g clip-path="url(#b98d65974c)"><rect x="-3" width="36" fill="#ffffff" y="-3" height="36.000001" fill-opacity="1"/></g><path fill="#000000" d="M 23.953125 5.992188 C 22.40625 4.980469 21.285156 3.367188 20.9375 1.480469 C 20.859375 1.074219 20.820312 0.65625 20.820312 0.226562 L 15.875 0.226562 L 15.867188 20.042969 C 15.78125 22.261719 13.957031 24.042969 11.714844 24.042969 C 11.023438 24.042969 10.367188 23.871094 9.789062 23.566406 C 8.464844 22.871094 7.5625 21.484375 7.5625 19.886719 C 7.5625 17.597656 9.425781 15.730469 11.71875 15.730469 C 12.148438 15.730469 12.558594 15.800781 12.945312 15.925781 L 12.945312 10.875 C 12.546875 10.820312 12.136719 10.785156 11.71875 10.785156 C 6.703125 10.785156 2.617188 14.867188 2.617188 19.886719 C 2.617188 22.96875 4.15625 25.695312 6.503906 27.339844 C 7.980469 28.378906 9.777344 28.992188 11.71875 28.992188 C 16.738281 28.992188 20.820312 24.910156 20.820312 19.886719 L 20.820312 9.839844 C 22.761719 11.230469 25.136719 12.050781 27.703125 12.050781 L 27.703125 7.109375 C 26.320312 7.109375 25.035156 6.695312 23.957031 5.992188 Z M 23.953125 5.992188 " fill-opacity="1" fill-rule="nonzero"/></svg>