<svg xmlns="http://www.w3.org/2000/svg" xmlns:xlink="http://www.w3.org/1999/xlink" width="40" zoomAndPan="magnify" viewBox="0 0 30 30.000001" height="40" preserveAspectRatio="xMidYMid meet" version="1.0"><defs><clipPath id="a1c5fa945b"><path d="M 0.484375 0 L 29.515625 0 L 29.515625 29.03125 L 0.484375 29.03125 Z M 0.484375 0 " clip-rule="nonzero"/></clipPath></defs><g clip-path="url(#a1c5fa945b)"><path fill="#000000" d="M 25.265625 4.25 C 22.523438 1.511719 18.878906 0 15 0 C 11.121094 0 7.476562 1.511719 4.734375 4.25 C 1.992188 6.992188 0.484375 10.640625 0.484375 14.515625 C 0.484375 18.394531 1.992188 22.039062 4.734375 24.78125 C 7.476562 27.523438 11.121094 29.03125 15 29.03125 C 18.878906 29.03125 22.523438 27.523438 25.265625 24.78125 C 28.007812 22.039062 29.515625 18.394531 29.515625 14.515625 C 29.515625 10.640625 28.007812 6.992188 25.265625 4.25 Z M 2.089844 14.515625 C 2.089844 12.898438 2.390625 11.351562 2.933594 9.925781 L 8.15625 9.925781 C 7.921875 11.386719 7.800781 12.929688 7.800781 14.515625 C 7.800781 16.046875 7.914062 17.542969 8.132812 18.960938 L 2.878906 18.960938 C 2.367188 17.574219 2.089844 16.078125 2.089844 14.515625 Z M 9.40625 14.515625 C 9.40625 12.921875 9.535156 11.371094 9.78125 9.925781 L 14.195312 9.925781 L 14.195312 18.960938 L 9.757812 18.960938 C 9.523438 17.554688 9.40625 16.058594 9.40625 14.515625 Z M 18.796875 5.160156 C 19.238281 6.101562 19.601562 7.167969 19.886719 8.320312 L 15.804688 8.320312 L 15.804688 1.753906 C 16.890625 2.152344 17.949219 3.34375 18.796875 5.160156 Z M 14.195312 1.753906 L 14.195312 8.320312 L 10.113281 8.320312 C 10.398438 7.167969 10.761719 6.101562 11.203125 5.160156 C 12.050781 3.34375 13.109375 2.152344 14.195312 1.753906 Z M 14.195312 20.566406 L 14.195312 27.277344 C 13.109375 26.878906 12.050781 25.6875 11.203125 23.875 C 10.746094 22.890625 10.367188 21.773438 10.078125 20.566406 Z M 15.804688 27.277344 L 15.804688 20.566406 L 19.921875 20.566406 C 19.632812 21.773438 19.253906 22.890625 18.796875 23.875 C 17.949219 25.6875 16.890625 26.878906 15.804688 27.277344 Z M 15.804688 18.960938 L 15.804688 9.925781 L 20.21875 9.925781 C 20.464844 11.371094 20.59375 12.921875 20.59375 14.515625 C 20.59375 16.058594 20.476562 17.554688 20.242188 18.960938 Z M 21.84375 9.925781 L 27.066406 9.925781 C 27.609375 11.351562 27.910156 12.898438 27.910156 14.515625 C 27.910156 16.078125 27.632812 17.574219 27.121094 18.960938 L 21.867188 18.960938 C 22.085938 17.542969 22.199219 16.046875 22.199219 14.515625 C 22.199219 12.929688 22.078125 11.386719 21.84375 9.925781 Z M 26.324219 8.320312 L 21.535156 8.320312 C 21.214844 6.917969 20.785156 5.621094 20.25 4.480469 C 19.839844 3.59375 19.378906 2.832031 18.878906 2.199219 C 22.074219 3.210938 24.734375 5.429688 26.324219 8.320312 Z M 11.121094 2.199219 C 10.621094 2.832031 10.160156 3.59375 9.75 4.480469 C 9.214844 5.621094 8.785156 6.917969 8.464844 8.320312 L 3.675781 8.320312 C 5.265625 5.429688 7.925781 3.210938 11.121094 2.199219 Z M 3.597656 20.566406 L 8.433594 20.566406 C 8.753906 22.023438 9.199219 23.371094 9.75 24.550781 C 10.160156 25.4375 10.621094 26.199219 11.121094 26.832031 C 7.875 25.804688 5.175781 23.527344 3.597656 20.566406 Z M 18.878906 26.832031 C 19.378906 26.199219 19.839844 25.4375 20.25 24.550781 C 20.800781 23.371094 21.246094 22.023438 21.566406 20.566406 L 26.402344 20.566406 C 24.824219 23.527344 22.125 25.804688 18.878906 26.832031 Z M 18.878906 26.832031 " fill-opacity="1" fill-rule="nonzero"/></g></svg>