<svg xmlns="http://www.w3.org/2000/svg" xmlns:xlink="http://www.w3.org/1999/xlink" width="40" zoomAndPan="magnify" viewBox="0 0 30 30.000001" height="40" preserveAspectRatio="xMidYMid meet" version="1.0"><defs><clipPath id="281f069041"><path d="M 6.871094 6.386719 L 23.128906 6.386719 L 23.128906 22.644531 L 6.871094 22.644531 Z M 6.871094 6.386719 " clip-rule="nonzero"/></clipPath><clipPath id="11450c1011"><path d="M 15 6.386719 C 10.511719 6.386719 6.871094 10.027344 6.871094 14.515625 C 6.871094 19.003906 10.511719 22.644531 15 22.644531 C 19.488281 22.644531 23.128906 19.003906 23.128906 14.515625 C 23.128906 10.027344 19.488281 6.386719 15 6.386719 Z M 15 6.386719 " clip-rule="nonzero"/></clipPath><clipPath id="abe7890d70"><path d="M 0.871094 0.386719 L 17.128906 0.386719 L 17.128906 16.644531 L 0.871094 16.644531 Z M 0.871094 0.386719 " clip-rule="nonzero"/></clipPath><clipPath id="9b88fc146f"><path d="M 9 0.386719 C 4.511719 0.386719 0.871094 4.027344 0.871094 8.515625 C 0.871094 13.003906 4.511719 16.644531 9 16.644531 C 13.488281 16.644531 17.128906 13.003906 17.128906 8.515625 C 17.128906 4.027344 13.488281 0.386719 9 0.386719 Z M 9 0.386719 " clip-rule="nonzero"/></clipPath><clipPath id="c24528f1cc"><rect x="0" width="18" y="0" height="17"/></clipPath><clipPath id="d9bee5e009"><path d="M 0.484375 4.753906 L 29.515625 4.753906 L 29.515625 24.351562 L 0.484375 24.351562 Z M 0.484375 4.753906 " clip-rule="nonzero"/></clipPath></defs><g clip-path="url(#281f069041)"><g clip-path="url(#11450c1011)"><g transform="matrix(1, 0, 0, 1, 6, 6)"><g clip-path="url(#c24528f1cc)"><g clip-path="url(#abe7890d70)"><g clip-path="url(#9b88fc146f)"><path fill="#ffffff" d="M 0.871094 0.386719 L 17.128906 0.386719 L 17.128906 16.644531 L 0.871094 16.644531 Z M 0.871094 0.386719 " fill-opacity="1" fill-rule="nonzero"/></g></g></g></g></g></g><g clip-path="url(#d9bee5e009)"><path fill="#000000" d="M 10.585938 10.417969 C 10.585938 10.230469 10.613281 9.871094 11.066406 9.605469 C 11.46875 9.367188 12.28125 9.183594 12.777344 9.460938 L 20.0625 13.441406 C 20.4375 13.652344 20.839844 14.109375 20.832031 14.601562 C 20.832031 14.921875 20.660156 15.207031 20.371094 15.363281 L 20.351562 15.371094 L 12.761719 19.144531 C 12.59375 19.234375 12.394531 19.269531 12.175781 19.269531 C 11.75 19.269531 11.3125 19.132812 11.050781 18.972656 C 10.609375 18.710938 10.585938 18.359375 10.585938 18.171875 Z M 6.445312 24.347656 L 23.402344 24.347656 C 26.699219 24.347656 29.515625 21.46875 29.515625 18.15625 L 29.515625 10.238281 C 29.515625 6.921875 26.699219 4.757812 23.402344 4.757812 L 6.445312 4.757812 C 3.148438 4.757812 0.484375 6.921875 0.484375 10.238281 L 0.484375 18.15625 C 0.484375 21.46875 3.148438 24.347656 6.445312 24.347656 " fill-opacity="1" fill-rule="nonzero"/></g></svg>